<svg width="404" height="242" viewBox="0 0 404 242" fill="none" xmlns="http://www.w3.org/2000/svg">
<g clip-path="url(#clip0_1212_20)">
<path d="M173.148 237.981C172.142 238.293 170.72 238.847 168.987 239.644C168.744 239.713 168.189 240.198 167.253 241.064C166.455 241.688 165.831 242 165.449 242C164.513 242 162.779 241.376 160.248 240.198C158.132 239.194 156.468 238.224 155.289 237.462C151.509 234.933 148.284 232.369 145.614 229.667C143.741 227.693 141.695 225.337 139.406 222.428C138.158 225.337 136.493 227.832 134.447 229.979C131.534 232.958 128.066 235.314 124.078 236.977C121.027 238.328 118.426 239.263 116.137 239.886C114.264 240.441 111.594 240.995 108.196 241.619C105.352 242.173 103.861 242.173 103.722 241.549C103.653 241.237 104.034 240.926 104.901 240.683C105.768 240.441 106.635 240.129 107.572 239.886C109.236 239.402 111.664 238.709 114.889 237.531C116.449 236.977 118.911 236.041 122.032 234.483C125.951 232.612 128.864 230.083 131.153 227.416C132.505 225.857 133.684 224.021 134.517 221.908C129.558 222.22 124.044 222.531 117.94 222.913C117.628 222.982 115.027 223.294 110.242 223.848C109.618 222.497 109.132 221.319 108.751 220.314C110.554 220.384 113.536 220.384 117.559 220.245L135.314 219.448C135.557 218.582 135.869 217.578 136.112 216.469C136.354 215.465 136.667 213.248 137.048 209.888C141.695 211.55 144.053 212.624 144.053 213.282C144.053 213.975 143.359 214.772 141.868 215.638C141.626 216.816 141.244 217.994 140.759 219.241C145.093 219.067 151.231 218.86 159.173 218.444L163.195 213.663C163.195 213.663 164.86 214.911 167.669 216.954C169.403 218.132 170.27 218.929 170.2 219.31C170.131 220.107 168.952 220.488 166.837 220.557C159.034 220.73 150.642 221.042 141.591 221.492C146.48 226.273 151.96 229.806 158.028 232.162C161.427 233.409 165.657 234.517 170.755 235.21C172.801 235.452 175.957 235.591 175.957 236.457C176.026 236.942 175.09 237.392 173.217 237.947L173.148 237.981ZM163.715 208.675C156.71 208.848 148.63 209.056 139.267 209.472C133.303 209.714 127.407 209.853 121.651 210.407L114.091 211.1C113.71 210.407 113.085 209.368 112.357 207.878C114.16 207.948 116.831 208.052 120.298 208.052C123.524 208.052 129.176 207.74 137.291 207.428V200.431L128.795 200.812C127.061 200.881 125.084 201.054 122.83 201.297C122.587 200.742 122.275 199.946 121.72 198.941C124.148 199.01 126.367 198.941 128.413 198.872C130.841 198.803 133.823 198.699 137.291 198.56V191.251C134.863 191.32 130.841 191.563 125.188 191.874C123.697 191.944 121.582 192.186 118.981 192.567L117.49 189.831C119.05 189.9 121.512 189.9 124.737 189.831C125.223 189.831 130.494 189.588 140.446 189.034C141.14 187.544 142.25 185.12 143.602 181.898C144.226 180.235 144.851 178.122 145.405 175.697C145.648 175.767 147.139 176.563 149.81 178.053C151.613 179.057 152.549 179.854 152.48 180.478C152.41 181.032 151.301 181.655 149.185 182.348C147.694 183.838 145.718 186.055 143.29 188.861C145.267 188.791 148.249 188.618 152.098 188.48C152.723 187.544 153.832 186.055 155.323 183.942C156.988 185.05 158.479 186.055 159.797 187.094C161.149 188.099 161.669 188.895 161.531 189.38C161.461 189.935 160.733 190.177 159.415 190.246C158.063 190.316 155.878 190.42 152.827 190.489C150.85 190.558 147.313 190.801 142.042 191.043C141.972 192.221 141.972 194.646 142.042 198.283C143.706 198.214 145.891 198.214 148.735 198.144C149.74 196.793 150.781 195.616 151.647 194.542C155.427 196.828 157.3 198.248 157.3 198.768C157.3 199.392 156.502 199.703 154.873 199.773C153.451 199.842 151.578 199.842 149.116 199.946C147.139 200.015 144.781 200.084 142.042 200.258V207.324C145.648 207.151 150.989 206.943 158.167 206.527C158.791 205.661 159.832 204.345 161.219 202.682C165.38 205.107 167.426 206.77 167.287 207.775C167.218 208.329 166.039 208.641 163.75 208.71L163.715 208.675ZM134.308 186.852C133.754 187.718 132.887 188.099 131.708 188.099C130.529 188.029 129.835 187.233 129.419 185.57C129.176 184.635 128.795 183.214 127.928 181.413C127.754 181.032 127.234 180.547 126.575 179.993C126.194 179.612 125.951 179.3 126.02 179.057C126.09 178.815 126.402 178.746 126.957 178.746C128.066 178.746 129.245 178.988 130.494 179.542C133.337 180.893 134.829 182.383 134.967 184.184C135.037 185.189 134.794 186.055 134.274 186.852H134.308Z" fill="#231815"/>
<path d="M222.842 197.762C220.414 197.832 217.571 198.005 214.345 198.144C214.345 198.525 214.345 199.945 214.276 202.231H214.449C216.183 202.231 217.917 202.855 219.651 204.032C221.628 205.383 222.564 207.012 222.634 208.986C222.634 209.852 222.46 210.545 222.079 211.272C221.593 211.965 221.073 212.277 220.345 212.277C219.339 212.277 218.611 211.723 218.368 210.545C218.125 209.61 218.056 208.674 217.744 207.704C217.05 205.903 216.079 204.725 215.074 203.929C215.004 203.859 214.762 203.79 214.276 203.547C214.207 207.566 213.964 214.148 213.964 223.501C213.964 226.099 213.964 230.013 213.721 235.14C213.652 236.075 213.166 237.114 212.299 238.292C211.363 239.47 210.496 240.093 209.629 240.093C208.936 240.093 208.624 239.401 208.624 238.05C208.624 237.669 208.693 236.941 208.797 235.937C209.04 233.512 209.352 229.874 209.664 225.094C209.837 223.431 209.837 218.824 210.219 211.203C210.288 209.714 210.531 207.427 210.6 204.448C209.907 206.007 208.866 208.293 207.202 211.134C203.11 218.201 198.324 223.639 193.053 227.623C192.498 228.004 191.805 228.489 190.938 228.87C190.626 228.87 190.452 228.697 190.452 228.316C190.383 227.831 190.834 227.069 191.874 226.029C194.614 223.293 196.66 220.937 198.012 219.032C200.197 216.053 202.243 212.762 204.081 209.229C206.196 205.21 207.861 201.608 209.109 198.386C206.751 198.559 204.774 198.698 203.144 198.767C201.168 198.906 199.434 199.148 197.873 199.391C197.492 198.698 196.937 197.659 196.209 196.238C197.388 196.308 199.503 196.308 202.416 196.238C204.15 196.169 206.82 196.065 210.357 195.996V187.128C210.357 183.975 210.184 180.996 209.803 178.26C210.357 178.329 211.849 178.814 214.276 179.611C216.079 180.165 217.016 180.858 217.189 181.585C217.258 182.07 217.12 182.521 216.565 183.075L214.9 184.738C214.727 187.474 214.588 191.181 214.415 195.823C215.212 195.823 215.906 195.823 216.53 195.753C217.883 193.952 218.958 192.532 219.755 191.527C220.934 192.393 222.113 193.328 223.292 194.264C225.096 195.753 225.963 196.689 225.824 197.243C225.755 197.555 224.714 197.728 222.842 197.797V197.762ZM264.629 236.248C263.935 236.318 263.276 236.491 262.583 236.629C261.161 237.184 259.739 237.876 258.421 238.916C256.687 240.163 255.682 240.786 255.37 240.786C254.572 240.786 252.769 239.539 249.96 236.941C247.845 235.071 246.249 233.477 245.07 232.23C243.891 230.983 242.782 229.805 241.915 228.697C240.909 229.944 239.73 231.121 238.516 232.299C236.713 234.031 234.493 235.521 232.066 236.768C230.02 237.773 228.286 238.5 226.968 238.881C225.616 239.262 224.784 239.435 224.437 239.435C224.055 239.435 223.743 239.262 223.639 239.054C223.396 238.673 224.125 238.05 225.685 237.184C230.644 234.586 234.32 231.78 236.852 228.627C237.719 227.623 238.516 226.445 239.21 225.233C235.499 219.967 232.933 215.325 231.442 211.342C231.06 215.429 230.332 219.101 229.326 222.427C228.772 224.297 228.321 225.648 227.905 226.514C227.28 227.935 226.413 229.424 225.373 230.914C223.639 233.339 221.593 235.556 219.166 237.669C217.813 238.846 216.808 239.401 216.183 239.401C216.01 239.401 215.871 239.331 215.802 239.227C215.629 239.158 215.559 238.985 215.559 238.846C215.559 238.604 216.183 237.911 217.362 236.629C219.651 234.101 221.385 231.606 222.703 229.182C224.437 225.96 225.685 221.803 226.552 216.676C227.038 213.94 227.35 211.099 227.419 208.189C227.662 202.612 227.801 197.659 227.731 193.19C227.662 187.994 227.419 184.149 227.107 181.655C227.592 181.897 228.91 182.451 231.026 183.456C232.829 184.253 234.008 184.945 234.563 185.569C238.585 185.326 242.435 185.015 246.284 184.634C246.978 183.768 248.157 182.209 249.821 179.992C251.382 180.996 253.046 182.174 254.711 183.698C256.202 185.049 256.895 185.881 256.826 186.296C256.757 186.677 255.474 186.92 253.116 186.851C253.046 186.851 250.584 187.024 245.798 187.232C237.857 187.717 233.314 188.098 232.274 188.479C232.274 191.077 232.274 194.991 232.205 200.187L245.417 199.252C245.972 198.629 246.839 197.589 247.949 196.273L251.555 199.183C253.116 200.43 253.913 201.469 253.913 202.023C253.844 202.578 253.532 203.028 252.803 203.444C252.11 203.825 251.382 204.24 250.688 204.552C250.376 206.665 249.995 209.575 249.024 213.42C247.844 218.304 246.18 221.976 244.55 224.748C246.215 226.237 247.949 227.588 249.821 228.766C252.873 230.74 257.381 232.472 263.346 234.101C265.149 234.586 266.085 235.036 266.016 235.452C265.946 235.833 265.461 236.075 264.594 236.318L264.629 236.248ZM238.828 202.231C237.476 202.3 235.291 202.543 232.135 202.785C232.066 203.651 231.962 205.072 231.823 207.115C232.447 208.536 233.557 210.649 235.118 213.385C237.476 216.78 239.522 219.448 241.325 221.387C242.816 218.166 243.926 214.806 244.619 211.238C245.001 209.125 245.556 205.903 246.111 201.573C244.758 201.746 242.331 201.885 238.794 202.196L238.828 202.231Z" fill="#231815"/>
<path d="M77.6443 77.9416C77.6443 96.1973 60.1318 123.875 38.1459 136.658C28.332 142.339 22.6101 143.932 16.5068 143.932C8.25339 143.932 0 138.632 0 125.676C0 119.788 4.71622 104.65 9.43245 90.1351C13.9406 75.4128 29.4764 31.0381 33.0136 20.0223C35.5797 12.9556 33.2216 11.57 28.6788 8.83338C27.2917 7.86344 26.1126 7.27455 26.1126 5.88892C26.1126 4.91898 28.6788 3.9144 31.0369 3.32551C33.395 2.73662 51.497 0 53.439 0C54.0285 0 54.8261 1.97452 54.0285 3.53335C49.1042 13.1635 26.4941 74.8239 21.0149 91.5208C20.6335 92.1096 21.9859 92.3175 22.4021 91.5208C31.6264 79.5351 47.9598 61.4873 62.1085 61.4873C71.3329 61.4873 77.6443 69.1429 77.6443 77.9762V77.9416ZM24.7602 98.5875C16.2987 112.513 12.9696 123.529 12.9696 129.037C12.9696 131.392 16.5068 138.459 20.6335 138.459C23.5811 138.459 27.4997 136.311 33.6031 131.011C45.9832 119.441 64.8481 90.7587 64.8481 74.0618C64.8481 70.5285 61.9004 67.9651 58.1552 67.9651C46.3646 67.9651 32.9789 85.0429 24.7255 98.5875H24.7602Z" fill="#231815"/>
<path d="M127.372 66.163C127.372 67.9297 126.193 70.8741 125.396 72.8487C115.963 94.8455 109.86 110.538 102.994 126.265C102.612 127.235 102.994 129.59 105.144 129.59C108.091 129.59 118.495 121.727 123.419 116.427C125.396 114.279 126.956 112.685 127.927 112.685C128.309 112.685 128.898 113.067 128.898 113.863C128.898 115.63 127.511 118.367 125.361 120.93C116.518 131.149 99.8034 143.897 91.7581 143.897C88.8104 143.897 85.8628 140.952 85.8628 138.978C85.8628 138.008 86.0709 137.211 86.8338 135.444C93.9081 117.986 101.953 98.9331 111.212 77.5251C112.01 75.7585 110.623 74.3728 109.652 74.7885C105.317 76.1742 100.428 78.7029 95.1218 83.4141C94.1509 84.384 92.5557 84.003 92.5557 82.8252C92.5557 81.4396 93.7347 79.4997 95.1218 77.9062C99.0405 73.1951 115.963 61.4172 122.83 61.4172C124.39 61.4172 127.338 64.3617 127.338 66.1284L127.372 66.163ZM134.863 29.8595C134.863 35.1596 130.147 40.4596 125.812 40.4596C124.841 40.4596 123.835 40.2517 122.864 39.8707C120.506 38.4851 118.53 35.9563 118.53 32.5962C118.53 29.0628 120.506 26.1183 122.448 24.3517C124.425 22.7928 126.367 21.9961 127.754 21.9961C132.089 21.9961 134.828 25.9105 134.828 29.8595H134.863Z" fill="#231815"/>
<path d="M220.38 77.9416C220.38 96.1973 202.867 123.875 180.881 136.658C171.067 142.339 165.345 143.932 159.242 143.932C150.989 143.932 142.735 138.632 142.735 125.676C142.735 119.788 147.452 104.65 152.168 90.1351C156.676 75.4128 172.212 31.0381 175.749 20.0223C178.315 12.9556 175.957 11.57 171.414 8.83338C170.027 7.86344 168.848 7.27455 168.848 5.88892C168.848 4.91898 171.414 3.9144 173.772 3.32551C176.13 2.73662 194.232 0 196.174 0C196.764 0 197.561 1.97452 196.764 3.53335C191.84 13.1635 169.229 74.8239 163.75 91.5208C163.369 92.1096 164.721 92.3175 165.137 91.5208C174.362 79.5351 190.695 61.4873 204.844 61.4873C214.068 61.4873 220.38 69.1429 220.38 77.9762V77.9416ZM167.496 98.5875C159.034 112.513 155.705 123.529 155.705 129.037C155.705 131.392 159.242 138.459 163.369 138.459C166.316 138.459 170.235 136.311 176.338 131.011C188.719 119.441 207.583 90.7587 207.583 74.0618C207.583 70.5285 204.636 67.9651 200.891 67.9651C189.1 67.9651 175.714 85.0429 167.461 98.5875H167.496Z" fill="#231815"/>
<path d="M292.545 68.9346C292.753 69.1424 293.724 68.9346 294.105 68.1378C294.903 66.579 296.671 63.8077 297.261 62.63C297.469 62.0411 299.411 60.8633 300 60.8633C301.387 60.8633 305.306 62.2489 307.456 63.5999C307.456 63.5999 308.046 64.5698 307.075 66.3365C304.335 72.6065 288.591 111.508 285.054 124.845C284.083 128.586 285.852 130.145 288.799 130.145C292.545 130.145 299.203 125.641 303.538 120.722C306.277 117.57 307.456 118.367 307.456 119.752C307.456 120.549 307.075 122.697 305.688 124.671C298.232 136.83 286.407 143.932 277.772 143.932C273.055 143.932 270.108 140.987 269.9 136.657C269.9 134.509 274.235 124.29 276.766 117.397C277.356 116.219 276.385 114.245 275.379 115.249C265.738 125.468 245.486 143.932 232.517 143.932C229.188 143.932 223.674 140.191 223.674 136.484C223.674 131.565 226.413 123.909 232.135 115.076C242.747 97.5824 258.872 79.7425 275.379 68.3457C278.708 65.9901 283.424 64.4313 284.603 64.4313C285.99 64.4313 289.701 65.9901 292.475 68.9346H292.545ZM258.733 89.7536C251.659 98.3792 240.631 117.639 240.631 127.062C240.631 129.417 242.608 132.743 244.55 132.743C249.474 132.743 256.133 128.032 264.421 119.198C273.853 109.568 282.106 95.8158 287.62 84.2458C288.799 81.3013 289.181 78.7379 288.591 78.149C286.441 76.1745 282.696 74.8235 281.517 74.8235C275.032 74.8235 266.189 80.1235 258.699 89.7536H258.733Z" fill="#231815"/>
<path d="M402.231 72.6421C402.231 75.9676 401.642 78.7388 399.492 84.2121C395.157 95.7821 383.574 120.342 381.806 123.495C380.037 127.028 380.245 128.795 382.395 128.795C386.314 128.795 394.186 122.525 400.081 117.017C401.642 115.631 404 115.25 404 116.636C404 118.61 402.613 120.758 401.642 122.317C394.775 132.709 376.292 143.933 369.391 143.933C367.622 143.933 365.264 143.136 363.114 140.607C362.525 140.018 361.138 138.252 363.322 134.129C365.091 130.804 388.499 82.8611 390.441 76.5911C392.591 70.4944 390.649 67.9656 387.701 67.9656C382.985 67.9656 375.702 72.4689 365.472 84.8702C357.219 94.2925 338.944 123.564 332.84 132.189C327.535 140.434 324.968 144.175 322.818 144.175C320.252 144.175 317.304 140.642 317.304 138.667C316.923 135.723 322.61 124.153 323.408 122.351C328.922 109.985 338.354 91.1402 344.041 76.2101C345.22 73.8545 344.041 73.0578 342.273 73.0578C336.169 73.0578 331.869 77.5611 327.153 81.8911C326.182 82.8611 325.384 83.8657 324.587 83.8657C323.997 83.8657 323.408 82.6879 323.408 81.8911C323.408 76.3833 332.459 61.4531 348.966 61.4531C351.705 61.4531 354.861 63.2198 356.248 65.3675C356.838 66.3375 356.838 68.1041 355.867 70.4597C354.479 73.612 345.637 94.8121 343.868 98.9344C343.07 100.493 345.428 100.701 346.226 99.1422C350.145 93.2533 363.912 76.7643 370.605 71.2564C379.066 63.9819 386.522 61.4531 391.065 61.4531C398.521 61.4531 402.266 67.342 402.266 72.6421H402.231Z" fill="#231815"/>
</g>
<defs>
<clipPath id="clip0_1212_20">
<rect width="404" height="242" fill="white"/>
</clipPath>
</defs>
</svg>
