<svg width="181" height="50" viewBox="0 0 181 50" fill="none" xmlns="http://www.w3.org/2000/svg">
<g clip-path="url(#clip0_1212_137)">
<path d="M52.3238 46.9751C51.5546 47.2092 50.4844 47.6271 49.18 48.2122C48.9961 48.279 48.5948 48.6301 47.8757 49.282C47.2904 49.7501 46.8055 50.0009 46.5212 50.0009C45.8022 50.0009 44.5146 49.5328 42.6083 48.6468C41.0029 47.8778 39.7655 47.159 38.8792 46.5739C36.0365 44.6849 33.6118 42.729 31.5884 40.7063C30.167 39.2185 28.6286 37.4465 26.9062 35.2566C25.953 37.4465 24.7156 39.3355 23.1772 40.9403C20.9866 43.1971 18.3779 44.9691 15.3512 46.2061C13.0436 47.2091 11.0871 47.928 9.36472 48.396C7.94334 48.814 5.91997 49.2319 3.37821 49.7C1.23778 50.1179 0.117399 50.1179 0.000344685 49.6331C-0.0665437 49.3991 0.234454 49.165 0.886616 48.9811C1.53878 48.7972 2.19094 48.5632 2.89327 48.396C4.1307 48.045 5.97013 47.5101 8.39484 46.6241C9.58211 46.2061 11.4215 45.504 13.7794 44.3171C16.7392 42.8962 18.9298 41.0072 20.6521 38.9845C21.6555 37.7976 22.5417 36.4435 23.1939 34.8387C19.4649 35.0727 15.3178 35.3068 10.6858 35.6077C10.4517 35.6745 8.49517 35.9086 4.8832 36.3265C4.41498 35.3235 4.04709 34.4375 3.76282 33.6685C5.11731 33.7354 7.37479 33.7354 10.4015 33.6017L23.7959 33.0166C23.9798 32.3646 24.2139 31.5956 24.3812 30.7598C24.5651 29.9908 24.7992 28.3359 25.1002 25.7782C28.5951 27.0152 30.3677 27.8511 30.3677 28.3191C30.3677 28.8541 29.8326 29.4392 28.7122 30.0911C28.5282 30.9771 28.244 31.8631 27.8761 32.816C31.1369 32.699 35.7522 32.5151 41.7387 32.2309L44.7654 28.6201C44.8825 28.7371 46.0028 29.5729 48.1433 31.1109C49.4476 31.9968 50.0998 32.5987 50.0329 32.8828C49.966 33.4679 49.0797 33.7688 47.4911 33.8357C41.6217 33.9527 35.284 34.1868 28.4781 34.5545C32.1569 38.1654 36.304 40.84 40.8524 42.612C43.3942 43.5649 46.6048 44.384 50.4509 44.9189C51.9894 45.1028 54.3639 45.2198 54.3639 45.8718C54.4308 46.2229 53.7117 46.5906 52.2904 46.9918L52.3238 46.9751ZM45.2169 24.8755C39.9494 24.9925 33.8459 25.1764 26.7892 25.4606C22.2909 25.6445 17.8428 25.7615 13.5118 26.1794L7.82629 26.7143C7.52529 26.1794 7.05707 25.4104 6.52196 24.2904C7.87645 24.3573 9.89983 24.4074 12.5085 24.4074C14.9332 24.4074 19.1973 24.1734 25.3009 23.9393V18.6735L18.8963 18.9744C17.592 19.0413 16.1037 19.1583 14.3981 19.3255C14.2141 18.9076 13.98 18.3225 13.562 17.5535C15.4014 17.6204 17.0569 17.5535 18.5953 17.4867C20.4347 17.4198 22.6755 17.3696 25.2842 17.2526V11.7361C23.4447 11.8029 20.418 11.9701 16.1539 12.2041C15.0335 12.271 13.4282 12.4382 11.4717 12.7391L10.3513 10.6662C11.5386 10.7331 13.378 10.7331 15.8027 10.6662C16.1539 10.6662 20.1338 10.4823 27.6587 10.0811C28.1938 8.96107 29.0132 7.12223 30.0332 4.69829C30.5015 3.46124 30.9864 1.85643 31.3877 0.0175781C31.5717 0.0844454 32.6921 0.669534 34.6987 1.78956C36.0532 2.55853 36.7722 3.14362 36.7054 3.62841C36.6385 4.04633 35.8191 4.5144 34.2138 5.04934C33.0934 6.16937 31.6051 7.84105 29.7657 9.96408C31.2539 9.89722 33.4947 9.7802 36.4044 9.66318C36.8726 8.94436 37.7087 7.82433 38.8291 6.21952C40.0665 7.05536 41.2036 7.82433 42.2069 8.5933C43.2103 9.36228 43.6283 9.94737 43.5112 10.3151C43.4444 10.7331 42.926 10.9002 41.9059 10.9671C40.9026 11.034 39.2471 11.0841 36.9227 11.151C35.4345 11.2178 32.7757 11.385 28.8125 11.5689C28.7456 12.4549 28.7456 14.2937 28.8125 17.0186C30.05 16.9517 31.7222 16.9517 33.8459 16.9016C34.6151 15.8986 35.3843 15.0126 36.0365 14.1767C38.8792 15.8986 40.3006 16.9684 40.3006 17.3696C40.3006 17.8377 39.7153 18.0885 38.4612 18.1386C37.391 18.2055 35.9696 18.2055 34.1301 18.2556C32.6419 18.3225 30.8693 18.3726 28.7958 18.4897V23.8223C31.5215 23.7053 35.5515 23.5214 40.936 23.2372C41.4043 22.5853 42.1735 21.5823 43.2437 20.3285C46.3875 22.1674 47.9259 23.4044 47.8088 24.1734C47.7419 24.5913 46.8557 24.8253 45.15 24.8755H45.2169ZM23.0601 8.40942C22.6421 9.06138 21.9899 9.36228 21.1036 9.36228C20.2174 9.29541 19.6823 8.71032 19.3813 7.47328C19.1973 6.75445 18.913 5.7013 18.2609 4.33052C18.1438 4.02961 17.7258 3.67856 17.2576 3.26064C16.9566 2.95974 16.7893 2.7257 16.8395 2.54182C16.9064 2.35793 17.1405 2.30778 17.5585 2.30778C18.3947 2.30778 19.2809 2.49167 20.2174 2.89287C22.3578 3.89588 23.4782 5.03262 23.5952 6.38668C23.6621 7.15566 23.4782 7.80761 23.0601 8.3927V8.40942Z" fill="#231815"/>
<path d="M82.3731 16.6494C80.5336 16.7163 78.4099 16.8333 75.9685 16.9503C75.9685 17.2512 75.9685 18.3044 75.9016 20.0262H76.0187C77.323 20.0262 78.6273 20.4943 79.9316 21.3803C81.4199 22.3833 82.1222 23.637 82.1891 25.1081C82.1891 25.7601 82.0721 26.295 81.7711 26.8299C81.4199 27.3649 81.0018 27.5989 80.4667 27.5989C79.6975 27.5989 79.1624 27.181 78.9785 26.295C78.7945 25.5762 78.7444 24.8741 78.5103 24.1552C77.9751 22.8012 77.2728 21.8985 76.5036 21.3134C76.4367 21.2465 76.2695 21.1964 75.9183 21.0125C75.8514 24.0382 75.6842 29.0031 75.6842 36.0576C75.6842 38.0135 75.6842 40.9724 75.5003 44.8172C75.4334 45.5361 75.0822 46.305 74.4301 47.191C73.711 48.077 73.0756 48.5451 72.4234 48.5451C71.8883 48.5451 71.6542 48.0101 71.6542 47.0071C71.6542 46.7062 71.7211 46.1713 71.7712 45.4023C71.9552 43.5635 72.1893 40.8386 72.4234 37.2278C72.5405 35.9908 72.5405 32.4969 72.8415 26.7464C72.9083 25.6263 73.0756 23.9045 73.1425 21.6477C72.6073 22.8346 71.8381 24.5564 70.6007 26.6795C67.5238 32.0121 63.9119 36.0911 59.932 39.1168C59.5139 39.4177 58.9788 39.7688 58.3267 40.0697C58.0926 40.0697 57.9755 39.9526 57.9755 39.6517C57.9086 39.3007 58.2765 38.6989 59.0457 37.9299C61.1193 35.857 62.6577 34.085 63.661 32.6641C65.3165 30.4073 66.8549 27.9332 68.2262 25.2586C69.8315 22.2328 71.0689 19.508 72.0221 17.084C70.2495 17.201 68.7613 17.3181 67.5238 17.3849C66.0356 17.502 64.7312 17.6858 63.5607 17.853C63.2597 17.3181 62.8416 16.5491 62.3233 15.4792C63.2095 15.5461 64.8148 15.5461 67.0054 15.4792C68.3098 15.4123 70.3164 15.3622 72.992 15.2953V8.6086C72.992 6.23481 72.8749 3.99476 72.5739 1.92188C72.992 1.98874 74.1123 2.3398 75.9518 2.92488C77.3063 3.3428 78.0253 3.87774 78.1424 4.41268C78.2092 4.76373 78.0755 5.1315 77.6741 5.53271L76.4367 6.76975C76.3197 8.84264 76.2026 11.6343 76.0855 15.1282C76.6708 15.1282 77.2059 15.1282 77.6909 15.0613C78.6942 13.7072 79.5303 12.6374 80.1156 11.8684C81.0018 12.5203 81.8881 13.2224 82.7744 13.9413C84.1289 15.0613 84.781 15.7801 84.664 16.198C84.5971 16.4321 83.8279 16.5491 82.4065 16.616L82.3731 16.6494ZM113.827 45.6698C113.292 45.7367 112.824 45.8537 112.289 45.9707C111.219 46.3886 110.148 46.9236 109.145 47.6925C107.841 48.6454 107.072 49.1135 106.837 49.1135C106.252 49.1135 104.881 48.1606 102.757 46.2047C101.152 44.7838 99.9647 43.5969 99.0784 42.644C98.1922 41.6912 97.3561 40.8052 96.7039 39.9861C95.9347 40.9389 95.0484 41.8249 94.1621 42.7109C92.8076 44.0148 91.1354 45.1349 89.296 46.0877C87.7576 46.8567 86.4532 47.3916 85.4499 47.6925C84.4466 47.9934 83.7944 48.1104 83.5603 48.1104C83.2593 48.1104 83.0252 47.9934 82.975 47.8095C82.7911 47.5086 83.3262 47.0406 84.5135 46.3886C88.2425 44.4327 91.0351 42.3097 92.9247 39.9359C93.5769 39.1669 94.1621 38.281 94.6972 37.395C91.9047 33.4331 89.9649 29.9393 88.8278 26.9135C88.5268 29.9894 87.9917 32.7811 87.2225 35.2719C86.8044 36.6929 86.4532 37.6959 86.1523 38.3478C85.684 39.4177 85.0319 40.5377 84.2626 41.6578C82.9583 43.4966 81.4199 45.1516 79.5805 46.7564C78.5771 47.6424 77.8079 48.0603 77.323 48.0603C77.2059 48.0603 77.0889 47.9934 77.022 47.9433C76.9049 47.8764 76.838 47.7594 76.838 47.6424C76.838 47.4585 77.3063 46.9403 78.1925 45.9874C79.9149 44.0984 81.2192 42.1927 82.2226 40.3538C83.5269 37.9299 84.48 34.7871 85.1322 30.9423C85.4834 28.8694 85.7175 26.7296 85.7844 24.5397C85.9683 20.3271 86.0854 16.5992 86.0185 13.2224C85.9516 9.31071 85.7844 6.4187 85.5503 4.51298C85.9014 4.69687 86.9047 5.09807 88.5101 5.86704C89.8646 6.45213 90.7675 6.98707 91.1689 7.47186C94.1956 7.28797 97.0885 7.05394 99.9981 6.75304C100.533 6.10108 101.42 4.91419 102.657 3.25922C103.844 4.02819 105.082 4.91419 106.336 6.05093C107.456 7.05394 107.991 7.70589 107.941 8.0068C107.874 8.3077 106.938 8.47487 105.149 8.42472C105.082 8.42472 103.259 8.54173 99.647 8.72562C93.6605 9.07667 90.2324 9.37758 89.4632 9.67848C89.4632 11.6343 89.4632 14.5932 89.3963 18.505L99.346 17.7861C99.764 17.3181 100.416 16.5491 101.236 15.5294L103.961 17.7193C105.149 18.6721 105.734 19.4411 105.734 19.859C105.667 20.2769 105.433 20.628 104.898 20.9289C104.363 21.2298 103.828 21.514 103.292 21.7647C103.058 23.3696 102.757 25.5595 102.055 28.4515C101.169 32.1292 99.9145 34.9042 98.6771 36.977C99.9145 38.0971 101.219 39.1168 102.64 40.0028C104.948 41.4906 108.326 42.7945 112.824 44.0315C114.178 44.3826 114.898 44.7504 114.831 45.0346C114.764 45.3355 114.413 45.5026 113.76 45.6865L113.827 45.6698ZM94.3962 20.0262C93.3929 20.0931 91.7374 20.2602 89.3629 20.4441C89.296 21.0961 89.2458 22.1659 89.1288 23.7039C89.597 24.7738 90.4331 26.3619 91.6204 28.4348C93.3929 30.9757 94.9314 32.9984 96.3026 34.4695C97.4229 32.0456 98.2591 29.4879 98.7942 26.8299C99.0952 25.2251 99.5132 22.8012 99.9145 19.5414C98.9112 19.6584 97.0718 19.7754 94.413 20.0095L94.3962 20.0262Z" fill="#231815"/>
<path d="M141.202 25.7108C141.202 27.9676 139.095 31.2775 136.486 32.7987C135.299 33.4841 134.496 33.668 133.777 33.668C132.74 33.668 131.67 32.9993 131.67 31.3945C131.67 30.7091 132.222 28.9371 132.79 27.1819C133.342 25.4099 135.182 20.1274 135.633 18.8235C135.934 17.9709 135.65 17.8037 135.115 17.4694C134.947 17.3524 134.78 17.2521 134.78 17.1184C134.78 16.9846 135.115 16.8342 135.399 16.7673C135.667 16.7004 137.957 16.3828 138.242 16.3828C138.342 16.3828 138.409 16.6168 138.309 16.784C137.723 17.9375 135.065 25.1424 134.379 27.232C134.362 27.3323 134.513 27.349 134.563 27.2487C135.7 25.7275 137.673 23.6881 139.295 23.6881C140.432 23.6881 141.185 24.6075 141.185 25.7108H141.202ZM134.83 28.1515C133.81 29.8399 133.392 31.2608 133.392 31.896C133.392 32.1802 133.794 32.9826 134.262 32.9826C134.613 32.9826 135.115 32.6984 135.8 32.0799C137.289 30.659 139.479 27.1986 139.479 25.2762C139.479 24.875 139.145 24.5573 138.727 24.5573C137.372 24.5573 135.834 26.4965 134.847 28.1347L134.83 28.1515Z" fill="#231815"/>
<path d="M147.289 24.2723C147.289 24.4897 147.155 24.8574 147.055 25.1082C145.934 27.7662 145.232 29.5716 144.429 31.4606C144.379 31.5943 144.429 31.8618 144.697 31.8618C145.031 31.8618 146.219 31.0092 146.837 30.3406C147.105 30.0731 147.239 29.9226 147.389 29.9226C147.439 29.9226 147.506 29.9728 147.506 30.0564C147.506 30.2737 147.356 30.608 147.071 30.9089C146.001 32.1961 143.911 33.6839 142.941 33.6839C142.59 33.6839 142.188 33.2994 142.188 33.0487C142.188 32.9317 142.205 32.8648 142.306 32.6475C143.158 30.5412 144.078 28.3345 145.198 25.7601C145.265 25.5428 145.132 25.3757 145.015 25.4258C144.513 25.5428 143.928 25.8772 143.292 26.3954C143.175 26.5124 142.991 26.4623 142.991 26.3285C142.991 26.1613 143.125 25.9273 143.292 25.71C143.76 25.1583 145.851 23.7207 146.77 23.7207C146.954 23.7207 147.322 24.0717 147.322 24.2891L147.289 24.2723ZM148.192 19.926C148.192 20.5946 147.573 21.2466 147.038 21.2466C146.904 21.2466 146.754 21.2299 146.653 21.1797C146.352 20.9959 146.101 20.6782 146.101 20.2269C146.101 19.7755 146.369 19.4245 146.62 19.1904C146.854 19.0065 147.088 18.9062 147.289 18.9062C147.857 18.9062 148.192 19.4078 148.192 19.926Z" fill="#231815"/>
<path d="M158.626 25.7108C158.626 27.9676 156.519 31.2775 153.911 32.7987C152.723 33.4841 151.921 33.668 151.202 33.668C150.165 33.668 149.095 32.9993 149.095 31.3945C149.095 30.7091 149.647 28.9371 150.215 27.1819C150.767 25.4099 152.606 20.1274 153.058 18.8235C153.359 17.9709 153.075 17.8037 152.539 17.4694C152.372 17.3524 152.205 17.2521 152.205 17.1184C152.205 16.9846 152.539 16.8342 152.824 16.7673C153.091 16.7004 155.382 16.3828 155.666 16.3828C155.767 16.3828 155.834 16.6168 155.733 16.784C155.148 17.9375 152.489 25.1424 151.804 27.232C151.787 27.3323 151.937 27.349 151.988 27.2487C153.125 25.7275 155.098 23.6881 156.72 23.6881C157.857 23.6881 158.61 24.6075 158.61 25.7108H158.626ZM152.255 28.1515C151.235 29.8399 150.817 31.2608 150.817 31.896C150.817 32.1802 151.218 32.9826 151.687 32.9826C152.038 32.9826 152.539 32.6984 153.225 32.0799C154.713 30.659 156.904 27.1986 156.904 25.2762C156.904 24.875 156.569 24.5573 156.151 24.5573C154.797 24.5573 153.259 26.4965 152.272 28.1347L152.255 28.1515Z" fill="#231815"/>
<path d="M167.322 24.5898C167.322 24.5898 167.455 24.5898 167.506 24.4895C167.623 24.2722 167.807 23.9713 167.907 23.8208C167.924 23.754 168.174 23.6035 168.241 23.6035C168.459 23.6035 168.927 23.7707 169.245 23.9379C169.245 23.9546 169.312 24.105 169.228 24.3223C168.843 25.1916 167.054 29.6383 166.603 31.2933C166.469 31.7613 166.72 31.9285 167.021 31.9285C167.472 31.9285 168.308 31.3601 168.827 30.775C169.128 30.424 169.278 30.541 169.278 30.6747C169.278 30.7917 169.228 31.0258 169.061 31.2933C168.108 32.8312 166.636 33.667 165.616 33.667C165.031 33.667 164.646 33.2826 164.613 32.7643C164.613 32.4969 165.131 31.2765 165.449 30.4407C165.499 30.307 165.399 30.0562 165.282 30.2067C163.977 31.6276 161.603 33.667 160.131 33.667C159.713 33.667 159.011 33.2157 159.011 32.7476C159.011 32.1625 159.345 31.2765 160.014 30.1899C161.335 28.0168 163.409 25.7767 165.282 24.5062C165.716 24.2388 166.201 24.0549 166.352 24.0549C166.502 24.0549 166.987 24.2722 167.322 24.6065V24.5898ZM163.292 27.0806C162.439 28.1171 161.235 30.3237 161.235 31.4939C161.235 31.8282 161.469 32.2127 161.703 32.2127C162.255 32.2127 163.024 31.661 164.011 30.6079C165.081 29.5213 166.101 27.8663 166.72 26.5122C166.887 26.1612 166.904 25.877 166.837 25.7934C166.569 25.5594 166.118 25.3922 165.984 25.3922C165.181 25.3922 164.161 26.0107 163.308 27.0973L163.292 27.0806Z" fill="#231815"/>
<path d="M180.766 25.0919C180.766 25.4931 180.699 25.8442 180.431 26.5129C179.913 27.9171 178.559 30.7589 178.341 31.1267C178.124 31.5614 178.174 31.7954 178.408 31.7954C178.876 31.7954 179.846 31.0431 180.515 30.4246C180.749 30.2073 180.983 30.1906 180.983 30.3745C180.983 30.6419 180.816 30.8927 180.682 31.0598C179.83 32.347 177.656 33.6677 176.702 33.6677C176.485 33.6677 176.151 33.5674 175.917 33.2498C175.816 33.1494 175.699 32.9488 175.917 32.4641C176.134 32.0629 178.91 26.3791 179.161 25.6102C179.395 24.8746 179.177 24.5737 178.809 24.5737C178.258 24.5737 177.371 25.1922 176.201 26.6299C175.197 27.8669 173.141 31.1769 172.405 32.2467C171.769 33.2665 171.435 33.6844 171.167 33.6844C170.783 33.6844 170.415 33.233 170.415 32.9656C170.348 32.5811 171 31.2604 171.101 31.0431C171.769 29.5553 172.873 27.3153 173.559 25.5433C173.692 25.2591 173.559 25.1588 173.375 25.1588C172.656 25.1588 172.087 25.7105 171.552 26.2287C171.435 26.3457 171.335 26.446 171.218 26.446C171.151 26.4627 171.084 26.3123 171.084 26.212C171.084 25.4764 172.271 23.671 174.278 23.671C174.579 23.671 175.014 23.8883 175.147 24.1892C175.214 24.323 175.214 24.5236 175.08 24.8245C174.913 25.2257 173.927 27.6663 173.676 28.1344C173.575 28.3684 173.843 28.4186 173.96 28.2013C174.462 27.4156 176.1 25.4764 176.87 24.8412C177.906 23.9719 178.759 23.6543 179.328 23.6543C180.248 23.6543 180.732 24.3898 180.732 25.0585L180.766 25.0919Z" fill="#231815"/>
</g>
<defs>
<clipPath id="clip0_1212_137">
<rect width="181" height="50" fill="white"/>
</clipPath>
</defs>
</svg>
