<svg width="100" height="301" viewBox="0 0 100 301" fill="none" xmlns="http://www.w3.org/2000/svg">
<g clip-path="url(#clip0_1212_335)">
<path d="M94.1847 83.4042C92.8338 83.8198 90.9542 84.5618 88.6634 85.6006C88.3404 85.7194 87.6355 86.3427 86.3727 87.5003C85.3448 88.3313 84.4931 88.7766 83.9938 88.7766C82.731 88.7766 80.4696 87.9455 77.1216 86.3427C74.3022 84.9773 72.1289 83.701 70.5724 82.6622C65.5797 79.3082 61.3213 75.8354 57.7677 72.244C55.2714 69.6023 52.5695 66.4561 49.5445 62.5678C47.8705 66.4561 45.6972 69.8101 42.9953 72.6595C39.148 76.6665 34.5665 79.8128 29.2508 82.0092C25.1979 83.7901 21.7618 85.0664 18.7369 85.8975C16.2405 86.6395 12.6869 87.3815 8.22291 88.2126C4.46373 88.9547 2.49604 88.9547 2.29046 88.0939C2.17298 87.6784 2.70162 87.2628 3.84699 86.9363C4.99236 86.6098 6.13774 86.1943 7.37122 85.8975C9.54449 85.2741 12.775 84.3243 17.0335 82.7512C19.1186 82.0092 22.3492 80.7626 26.4902 78.6552C31.6884 76.1322 35.5357 72.7782 38.5606 69.1868C40.3228 67.0794 41.8793 64.6752 43.0247 61.8258C36.4755 62.2413 29.1921 62.6569 21.057 63.1911C20.6458 63.3098 17.2097 63.7254 10.8661 64.4674C10.0438 62.6865 9.39765 61.1134 8.89839 59.7481C11.2772 59.8668 15.242 59.8668 20.5577 59.6293L44.0819 58.5905C44.405 57.4329 44.8162 56.0676 45.1098 54.5835C45.4329 53.2181 45.8441 50.2797 46.3727 45.7384C52.5107 47.9348 55.6238 49.4189 55.6238 50.25C55.6238 51.1998 54.684 52.2387 52.7163 53.3962C52.3932 54.9693 51.894 56.5425 51.2479 58.2343C56.9747 58.0265 65.0805 57.7 75.5944 57.1955L80.9101 50.7843C81.1157 50.992 83.0834 52.4761 86.8426 55.2068C89.1333 56.7799 90.2787 57.8485 90.1612 58.353C90.0438 59.3919 88.4872 59.9262 85.6972 60.0449C75.3888 60.2527 64.2581 60.6682 52.3051 61.2915C58.7662 67.7027 66.0496 72.4517 74.0379 75.598C78.5019 77.2898 84.1407 78.7442 90.8954 79.694C93.5974 80.0205 97.7677 80.2283 97.7677 81.3859C97.8852 82.0092 96.6223 82.6325 94.126 83.3745L94.1847 83.4042ZM81.7031 44.1653C72.452 44.3731 61.7324 44.6996 49.3389 45.2041C41.4388 45.5306 33.6267 45.7384 26.0203 46.4804L16.0349 47.4302C15.5063 46.4804 14.684 45.1151 13.7442 43.1264C16.1231 43.2452 19.6767 43.3342 24.2582 43.3342C28.5166 43.3342 36.0056 42.9187 46.7251 42.5031V33.1535L35.4769 33.6877C33.1862 33.8064 30.5724 34.0142 27.5768 34.311C27.2537 33.569 26.8426 32.5301 26.1084 31.1648C29.3389 31.2835 32.2464 31.1648 34.9483 31.0461C38.1789 30.9273 42.1142 30.8383 46.6957 30.6305V20.8653C43.4652 20.984 38.1495 21.2809 30.6605 21.6964C28.6928 21.8151 25.8734 22.1119 22.4373 22.6462L20.4696 18.9657C22.5548 19.0844 25.7853 19.0844 30.0438 18.9657C30.6605 18.9657 37.6502 18.6392 50.8661 17.9269C51.8059 15.9382 53.2449 12.6732 55.0364 8.36941C55.8587 6.17298 56.7104 3.32356 57.4153 0.0585938C57.7383 0.17732 59.706 1.21617 63.2303 3.20483C65.6091 4.57018 66.8719 5.60903 66.7545 6.4698C66.637 7.21183 65.1979 8.04291 62.3786 8.99272C60.4109 10.9814 57.7971 13.9495 54.5665 17.7191C57.1803 17.6004 61.1157 17.3926 66.2258 17.1848C67.0482 15.9382 68.5166 13.9198 70.4843 11.1001C72.6576 12.5842 74.6546 13.9495 76.4167 15.3149C78.1789 16.6802 78.9131 17.7488 78.7075 18.3721C78.59 19.1141 77.6796 19.4109 75.8881 19.5296C74.126 19.6484 71.2185 19.7374 67.1363 19.8561C64.5225 19.9749 59.8529 20.2717 52.8925 20.5982C52.775 22.1713 52.775 25.4363 52.8925 30.2743C55.0658 30.1556 58.0026 30.1556 61.7325 30.0666C63.0834 28.2857 64.4344 26.7126 65.5797 25.2285C70.5724 28.2857 73.0687 30.1853 73.0687 30.8977C73.0687 31.7287 72.0408 32.1443 69.8382 32.263C67.9586 32.3817 65.4623 32.3817 62.2317 32.4708C59.6179 32.5895 56.5048 32.6786 52.8631 32.8863V42.3547C57.6502 42.1469 64.728 41.8204 74.1847 41.3159C75.007 40.1583 76.358 38.3774 78.2376 36.1513C83.7589 39.4162 86.4608 41.6127 86.2552 42.978C86.1377 43.7201 84.5812 44.1356 81.5856 44.2246L81.7031 44.1653ZM42.7897 14.929C42.0555 16.0866 40.9101 16.6209 39.3536 16.6209C37.7971 16.5021 36.8573 15.4633 36.3286 13.2669C36.0056 11.9906 35.5063 10.1206 34.3609 7.68674C34.1554 7.15247 33.4211 6.52916 32.5988 5.78712C32.0702 5.25285 31.7765 4.83731 31.8646 4.51082C31.9821 4.18432 32.3932 4.09528 33.1275 4.09528C34.5959 4.09528 36.1524 4.42177 37.7971 5.13413C41.5562 6.91502 43.5239 8.93336 43.7295 11.3376C43.847 12.7029 43.5239 13.8605 42.7897 14.8993V14.929Z" fill="#231815"/>
<path d="M42.878 134.724C39.6474 134.842 35.9176 135.05 31.6298 135.258C31.6298 135.792 31.6298 137.692 31.5123 140.719H31.7179C34.0086 140.719 36.2994 141.55 38.5901 143.123C41.204 144.904 42.4374 147.13 42.5549 149.742C42.5549 150.9 42.3493 151.85 41.8207 152.8C41.2039 153.749 40.4697 154.165 39.5299 154.165C38.179 154.165 37.2392 153.423 36.9161 151.85C36.5931 150.574 36.505 149.327 36.0938 148.051C35.154 145.617 33.9205 144.044 32.5696 143.005C32.4521 142.886 32.1584 142.797 31.5417 142.47C31.4242 147.843 31.1305 156.658 31.1305 169.184C31.1305 172.657 31.1305 177.91 30.8075 184.737C30.69 185.984 30.0733 187.379 28.9279 188.952C27.665 190.525 26.549 191.356 25.4037 191.356C24.4639 191.356 24.0527 190.406 24.0527 188.625C24.0527 188.091 24.1702 187.141 24.2583 185.776C24.5813 182.511 24.9925 177.673 25.4037 171.262C25.6092 169.065 25.6092 162.862 26.1379 152.651C26.2553 150.663 26.549 147.605 26.6665 143.598C25.7267 145.706 24.3758 148.763 22.2025 152.532C16.7987 162.001 10.4551 169.243 3.46533 174.616C2.73112 175.15 1.79132 175.773 0.645947 176.307C0.234787 176.307 0.0292066 176.1 0.0292066 175.565C-0.0882677 174.942 0.557841 173.873 1.9088 172.508C5.5505 168.828 8.25241 165.681 10.0145 163.158C12.922 159.151 15.6239 154.759 18.0321 150.01C20.8515 144.637 23.0248 139.799 24.6988 135.495C21.5857 135.703 18.9719 135.911 16.7987 136.03C14.1849 136.237 11.8941 136.564 9.83831 136.861C9.30968 135.911 8.57546 134.546 7.66504 132.646C9.22157 132.765 12.041 132.765 15.8882 132.646C18.179 132.527 21.7032 132.438 26.4022 132.319V120.447C26.4022 116.232 26.1966 112.255 25.668 108.574C26.4022 108.693 28.3699 109.316 31.6004 110.355C33.9793 111.097 35.2421 112.047 35.4477 112.997C35.5652 113.62 35.3302 114.243 34.6254 114.985L32.4521 117.182C32.2465 120.862 32.041 125.819 31.8354 132.023C32.8633 132.023 33.8031 132.023 34.6548 131.904C36.4169 129.47 37.8853 127.6 38.9132 126.235C40.4697 127.392 42.0263 128.669 43.5828 129.915C45.9617 131.904 47.107 133.18 46.9015 133.922C46.784 134.338 45.433 134.546 42.9367 134.664L42.878 134.724ZM98.1203 186.251C97.1805 186.369 96.3581 186.577 95.4184 186.785C93.5388 187.527 91.6592 188.477 89.8971 189.842C87.6063 191.534 86.2553 192.365 85.8442 192.365C84.8163 192.365 82.4081 190.673 78.6783 187.2C75.8589 184.678 73.7737 182.57 72.2172 180.878C70.6606 179.186 69.1922 177.613 68.0468 176.159C66.6959 177.851 65.1393 179.424 63.5828 180.997C61.204 183.312 58.2671 185.301 55.0366 186.993C52.3346 188.358 50.0439 189.308 48.2818 189.842C46.5197 190.376 45.3743 190.584 44.9631 190.584C44.4345 190.584 44.0233 190.376 43.9352 190.05C43.6122 189.516 44.552 188.685 46.6371 187.527C53.1863 184.054 58.0909 180.285 61.4095 176.07C62.5549 174.705 63.5828 173.131 64.5226 171.558C59.618 164.524 56.2113 158.32 54.2142 152.948C53.6856 158.409 52.7458 163.366 51.3948 167.789C50.6606 170.312 50.0439 172.093 49.5153 173.25C48.6929 175.15 47.5476 177.138 46.1966 179.127C43.9059 182.392 41.204 185.331 37.9734 188.18C36.2113 189.753 34.8603 190.495 34.0086 190.495C33.8031 190.495 33.5975 190.376 33.48 190.287C33.2744 190.169 33.157 189.961 33.157 189.753C33.157 189.427 33.9793 188.506 35.5358 186.815C38.5608 183.461 40.8515 180.077 42.6136 176.812C44.9044 172.508 46.5784 166.928 47.7238 160.101C48.3405 156.421 48.7517 152.622 48.8691 148.733C49.1922 141.254 49.3978 134.635 49.2803 128.639C49.1628 121.693 48.8692 116.529 48.458 113.175C49.0747 113.501 50.8368 114.214 53.6562 115.609C56.0351 116.648 57.621 117.597 58.3258 118.458C63.6415 118.132 68.7223 117.716 73.8324 117.212C74.7722 116.054 76.3288 113.947 78.502 111.008C80.5872 112.373 82.7605 113.947 84.9631 115.965C86.9308 117.746 87.8706 118.903 87.7825 119.438C87.665 119.972 86.0204 120.269 82.878 120.18C82.7605 120.18 79.5593 120.387 73.2157 120.714C62.7018 121.337 56.6812 121.872 55.3302 122.406C55.3302 125.879 55.3302 131.132 55.2128 138.078L72.6871 136.801C73.4213 135.97 74.5667 134.605 76.0057 132.794L80.7928 136.683C82.878 138.374 83.9059 139.74 83.9059 140.482C83.7884 141.224 83.3772 141.847 82.4374 142.381C81.4976 142.916 80.5578 143.42 79.6181 143.866C79.2069 146.715 78.6783 150.603 77.4448 155.738C75.8882 162.268 73.6856 167.195 71.5123 170.876C73.6856 172.864 75.9763 174.675 78.4727 176.248C82.5255 178.89 88.458 181.205 96.3581 183.401C98.737 184.025 99.9998 184.648 99.8824 185.182C99.7649 185.716 99.1482 186.013 98.0028 186.34L98.1203 186.251ZM63.994 140.719C62.2319 140.838 59.3244 141.135 55.154 141.461C55.0366 142.619 54.9484 144.518 54.7429 147.249C55.5652 149.149 57.0336 151.969 59.1188 155.649C62.2319 160.161 64.9338 163.752 67.342 166.364C69.3097 162.06 70.7781 157.519 71.7179 152.8C72.2465 149.95 72.9808 145.646 73.6856 139.858C71.9235 140.066 68.6929 140.274 64.0233 140.69L63.994 140.719Z" fill="#231815"/>
<path d="M49.75 244.486C46.5782 244.486 41.9379 241.488 39.794 237.778C38.8249 236.086 38.5605 234.958 38.5605 233.949C38.5605 232.465 39.5003 230.951 41.7617 230.951C42.7309 230.951 45.2272 231.723 47.6942 232.524C50.1905 233.296 57.6208 235.938 59.4416 236.561C60.6457 237.006 60.8807 236.591 61.3506 235.819C61.5268 235.581 61.6442 235.344 61.8498 235.344C62.0554 235.344 62.261 235.819 62.3491 236.205C62.4372 236.561 62.8777 239.826 62.8777 240.241C62.8777 240.39 62.5547 240.479 62.3197 240.331C60.6751 239.499 50.5723 235.73 47.6354 234.75C47.4886 234.721 47.4592 234.958 47.6061 235.018C49.75 236.62 52.5987 239.44 52.5987 241.755C52.5987 243.358 51.3065 244.456 49.7793 244.456L49.75 244.486ZM46.3139 235.433C43.9644 233.979 41.9673 233.385 41.0569 233.385C40.6457 233.385 39.5297 233.949 39.5297 234.632C39.5297 235.136 39.9409 235.849 40.7926 236.828C42.7896 238.936 47.6648 242.052 50.3373 242.052C50.8953 242.052 51.3359 241.577 51.3359 240.984C51.3359 239.054 48.6046 236.887 46.3139 235.463V235.433Z" fill="#231815"/>
<path d="M51.7472 253.154C51.4535 253.154 50.9249 252.947 50.5724 252.828C46.8426 251.255 44.3169 250.246 41.6444 249.088C41.4388 249.029 41.0864 249.088 41.0864 249.444C41.0864 249.919 42.2905 251.611 43.2303 252.472C43.5827 252.828 43.8177 253.036 43.8177 253.243C43.8177 253.303 43.7589 253.422 43.6121 253.422C43.3184 253.422 42.8485 253.214 42.408 252.828C40.6165 251.314 38.502 248.346 38.502 246.981C38.502 246.476 39.0306 245.912 39.4124 245.912C39.5886 245.912 39.6767 245.942 39.9704 246.09C42.9366 247.307 46.0203 248.613 49.662 250.186C49.9557 250.275 50.1906 250.097 50.1319 249.919C49.9557 249.207 49.4858 248.376 48.781 247.456C48.6047 247.277 48.6928 247.01 48.8691 247.01C49.104 247.01 49.4271 247.218 49.7208 247.456C50.4843 248.138 52.5108 251.077 52.5108 252.412C52.5108 252.679 52.0115 253.184 51.7178 253.184L51.7472 253.154ZM57.8852 254.431C56.9454 254.431 56.035 253.57 56.035 252.798C56.035 252.59 56.0644 252.383 56.1231 252.264C56.3874 251.819 56.8279 251.492 57.4447 251.492C58.0614 251.492 58.5901 251.848 58.9131 252.234C59.1774 252.561 59.3243 252.917 59.3243 253.184C59.3243 253.985 58.6194 254.46 57.8852 254.46V254.431Z" fill="#231815"/>
<path d="M49.75 269.24C46.5782 269.24 41.9379 266.242 39.794 262.532C38.8249 260.84 38.5605 259.712 38.5605 258.703C38.5605 257.219 39.5003 255.705 41.7617 255.705C42.7309 255.705 45.2272 256.477 47.6942 257.278C50.1905 258.05 57.6208 260.662 59.4416 261.315C60.6457 261.76 60.8807 261.345 61.3506 260.573C61.5268 260.335 61.6442 260.098 61.8498 260.098C62.0554 260.098 62.261 260.573 62.3491 260.959C62.4372 261.315 62.8777 264.58 62.8777 264.995C62.8777 265.114 62.5547 265.233 62.3197 265.084C60.6751 264.253 50.5723 260.484 47.6354 259.504C47.4886 259.475 47.4592 259.712 47.6061 259.771C49.75 261.374 52.5987 264.194 52.5987 266.509C52.5987 268.112 51.3065 269.21 49.7793 269.21L49.75 269.24ZM46.3139 260.187C43.9644 258.733 41.9673 258.139 41.0569 258.139C40.6457 258.139 39.5297 258.703 39.5297 259.386C39.5297 259.89 39.9409 260.603 40.7926 261.582C42.7896 263.689 47.6648 266.806 50.3373 266.806C50.8953 266.806 51.3359 266.331 51.3359 265.737C51.3359 263.808 48.6046 261.641 46.3139 260.217V260.187Z" fill="#231815"/>
<path d="M51.3073 281.588C51.3073 281.588 51.3073 281.796 51.4542 281.855C51.7479 282.033 52.1884 282.3 52.394 282.419C52.4821 282.449 52.6877 282.775 52.6877 282.894C52.6877 283.191 52.4527 283.873 52.2178 284.319C52.1884 284.319 51.9828 284.408 51.6891 284.289C50.4557 283.755 44.2295 281.202 41.9094 280.549C41.2339 280.341 40.999 280.727 40.999 281.143C40.999 281.766 41.7919 282.953 42.6436 283.695C43.1429 284.14 42.9667 284.348 42.7905 284.348C42.6142 284.348 42.2912 284.289 41.9388 284.051C39.7655 282.716 38.6201 280.608 38.6201 279.184C38.6201 278.353 39.1488 277.818 39.883 277.759C40.2354 277.759 41.9681 278.501 43.1429 278.946C43.3485 279.006 43.6715 278.887 43.4659 278.709C41.4689 276.868 38.6201 273.485 38.6201 271.407C38.6201 270.813 39.2662 269.834 39.9123 269.834C40.7347 269.834 41.9681 270.309 43.4953 271.259C46.5496 273.129 49.6921 276.067 51.4836 278.738C51.836 279.332 52.1297 280.044 52.1297 280.252C52.1297 280.46 51.836 281.172 51.3661 281.618L51.3073 281.588ZM47.8125 275.859C46.3441 274.642 43.2604 272.921 41.6157 272.921C41.1458 272.921 40.6172 273.247 40.6172 273.604C40.6172 274.375 41.3808 275.473 42.8786 276.868C44.4057 278.382 46.7258 279.837 48.6348 280.697C49.1341 280.935 49.5452 280.965 49.6333 280.875C49.9564 280.519 50.1913 279.866 50.1913 279.659C50.1913 278.501 49.3397 277.076 47.7831 275.859H47.8125Z" fill="#231815"/>
<path d="M50.6312 300.673C50.0732 300.673 49.5739 300.584 48.6341 300.198C46.6664 299.456 42.6723 297.527 42.1437 297.23C41.5563 296.933 41.2039 296.992 41.2039 297.319C41.2039 298.002 42.2611 299.367 43.1422 300.317C43.4359 300.643 43.4652 301 43.2009 301C42.8485 301 42.4667 300.762 42.2318 300.554C40.4403 299.337 38.5607 296.25 38.5607 294.915C38.5607 294.618 38.6782 294.143 39.1481 293.787C39.2949 293.668 39.5886 293.49 40.2347 293.787C40.7927 294.084 48.781 298.031 49.8676 298.388C50.8955 298.714 51.336 298.417 51.336 297.883C51.336 297.111 50.4843 295.835 48.4285 294.173C46.6958 292.748 42.0262 289.839 40.5284 288.8C39.0893 287.88 38.502 287.435 38.502 287.049C38.502 286.515 39.1481 285.981 39.5005 285.981C40.0291 285.892 41.9087 286.812 42.2024 286.96C44.2876 287.91 47.43 289.483 49.9263 290.463C50.3375 290.67 50.455 290.463 50.455 290.195C50.455 289.186 49.6914 288.385 48.9572 287.613C48.781 287.435 48.6635 287.316 48.6635 287.138C48.6341 287.049 48.8691 286.93 48.9865 286.93C50.0144 286.93 52.5401 288.622 52.5401 291.472C52.5401 291.917 52.2464 292.511 51.8059 292.718C51.6003 292.807 51.336 292.807 50.8955 292.629C50.3375 292.392 46.9014 290.967 46.2259 290.641C45.9028 290.522 45.8147 290.878 46.1378 291.056C47.2244 291.769 49.9557 294.084 50.8661 295.182C52.0996 296.666 52.5401 297.883 52.5401 298.684C52.5401 299.99 51.5122 300.673 50.5724 300.673H50.6312Z" fill="#231815"/>
</g>
<defs>
<clipPath id="clip0_1212_335">
<rect width="100" height="301" fill="white"/>
</clipPath>
</defs>
</svg>
